<svg xmlns="http://www.w3.org/2000/svg" viewBox="0 0 32 32" fill="none">
  <circle cx="16" cy="16" r="16" fill="#30E85E"/>
  <path 
    d="M16 7C12 7 9 11 9 15C9 18 10.5 21 13 23C13 24.5 14.5 26 16 26C17.5 26 19 24.5 19 23C21.5 21 23 18 23 15C23 11 20 7 16 7Z" 
    fill="white"
  />
  <path 
    d="M16 10C16 10 13 13 13 17C13 18.5 14 20 15 21C15 21 16 19 16 17C16 19 17 21 17 21C18 20 19 18.5 19 17C19 13 16 10 16 10Z" 
    fill="#30E85E"
  />
  <path 
    d="M16 10L16 20" 
    stroke="#30E85E" 
    stroke-width="1" 
    stroke-linecap="round"
  />
</svg>