<svg xmlns="http://www.w3.org/2000/svg" viewBox="0 0 48 48" fill="none">
  <circle cx="24" cy="24" r="24" fill="#30E85E"/>
  <path 
    d="M24 10C18 10 14 16 14 22C14 26 16 30 20 32C20 34 22 36 24 36C26 36 28 34 28 32C32 30 34 26 34 22C34 16 30 10 24 10Z" 
    fill="white"
  />
  <path 
    d="M24 14C24 14 20 18 20 24C20 26 21 28 22 29C22 29 24 27 24 24C24 27 26 29 26 29C27 28 28 26 28 24C28 18 24 14 24 14Z" 
    fill="#30E85E"
  />
  <path 
    d="M24 14L24 28" 
    stroke="#30E85E" 
    stroke-width="1.5" 
    stroke-linecap="round"
  />
</svg>